# xmcd CD database file
#
# Track frame offsets:
#	150
#	20025
#	42125
#	61735
#
# Disc length: 1113 seconds
#
# Revision: 0
# Processed by: cddbd v1.5.1PL0 Copyright (c) Steve Scherf et al.
# Submitted via: CDex 1.51
#
DISCID=2a045704
DTITLE=ウルド - Fortune smiled on you
DYEAR=1900
DGENRE=アニメ
TTITLE0=Fortune smiled on you
TTITLE1=花びらの記憶
TTITLE2=Fortune smiled on you（オリジナルカラオケ）
TTITLE3=花びらの記憶（オリジナルカラオケ）
EXTD=
EXTT0=
EXTT1=
EXTT2=
EXTT3=
PLAYORDER=
